<?xml version="1.0" standalone="no"?>
<!DOCTYPE svg PUBLIC "-//W3C//DTD SVG 20010904//EN"
 "http://www.w3.org/TR/2001/REC-SVG-20010904/DTD/svg10.dtd">
<svg version="1.0" xmlns="http://www.w3.org/2000/svg"
 width="1000.000000pt" height="1000.000000pt" viewBox="0 0 1000.000000 1000.000000"
 preserveAspectRatio="xMidYMid meet">
<metadata>
Created by potrace 1.16, written by Peter Selinger 2001-2019
</metadata>
<g transform="translate(0.000000,1000.000000) scale(0.100000,-0.100000)"
fill="#000000" stroke="none">
<path d="M2440 9708 c-52 -5 -162 -22 -245 -39 -454 -91 -873 -314 -1206 -640
-533 -524 -791 -1252 -704 -1993 65 -556 316 -1063 717 -1452 355 -343 755
-547 1268 -646 114 -22 121 -22 1463 -25 l1348 -4 -4 1323 c-3 1460 0 1380
-68 1657 -45 183 -91 308 -179 486 -126 256 -268 452 -468 651 -501 498 -1210
749 -1922 682z m480 -922 c109 -22 282 -82 385 -134 237 -118 431 -296 576
-527 109 -174 161 -311 205 -540 20 -99 22 -402 4 -450 -11 -29 -17 -30 -47
-7 -22 16 -23 21 -15 100 4 45 6 85 3 87 -2 3 -62 5 -132 5 -100 0 -131 3
-143 15 -8 8 -32 15 -55 15 -34 0 -41 3 -41 20 0 19 7 20 183 20 101 0 186 2
188 5 9 8 -11 185 -30 273 -35 160 -145 399 -230 502 -29 34 -30 35 -63 22
-86 -35 -296 -102 -363 -117 -41 -10 -78 -21 -81 -26 -5 -9 12 -64 41 -133 19
-44 10 -62 -27 -53 -19 5 -27 18 -38 59 -7 29 -19 68 -27 86 -12 29 -18 33
-39 28 -65 -17 -241 -38 -359 -44 l-130 -7 -5 -101 c-5 -101 -16 -134 -46
-134 -10 0 -14 27 -16 118 l-3 117 -135 7 c-74 4 -145 10 -157 13 -50 12 -10
71 41 61 17 -3 82 -9 144 -12 l112 -7 0 347 0 346 -38 0 c-31 0 -45 -7 -73
-37 -53 -56 -166 -206 -205 -274 -49 -82 -76 -111 -93 -100 -12 8 -7 21 27 73
45 68 103 145 196 257 32 40 57 73 55 75 -2 3 -73 -13 -156 -34 -243 -61 -472
-184 -632 -341 -54 -52 -66 -59 -101 -59 -22 0 -40 5 -40 11 0 24 178 180 297
261 154 103 397 197 581 223 118 17 373 12 482 -9z m-1841 -171 c63 -31 195
-156 302 -286 46 -56 94 -113 107 -128 22 -25 23 -25 12 -2 -21 42 1 49 163
50 85 1 87 2 87 25 0 13 7 29 16 37 13 11 20 10 42 -4 15 -9 26 -23 26 -32 -1
-12 10 -15 55 -14 54 1 169 15 144 18 -19 2 -35 40 -29 67 5 17 13 24 30 24
32 0 86 -46 86 -74 0 -21 2 -22 128 -18 l127 4 42 -44 c24 -25 39 -48 35 -54
-4 -7 -56 -24 -117 -39 -60 -15 -117 -31 -125 -36 -10 -6 -7 -7 12 -3 20 4 29
1 38 -15 13 -25 6 -41 -18 -41 -21 1 -52 23 -52 39 0 14 -5 14 -55 0 -136 -35
-149 -41 -132 -50 20 -12 22 -35 5 -42 -17 -6 -58 10 -58 23 0 15 -22 12 -118
-15 -48 -13 -105 -27 -127 -30 l-40 -7 -70 101 c-38 56 -74 101 -78 101 -8 0
4 -18 115 -172 177 -245 358 -551 402 -681 18 -53 9 -87 -22 -87 -105 0 -756
686 -978 1031 -73 115 -116 215 -118 277 -1 47 2 57 27 78 36 31 75 31 136 -1z
m1008 -617 c-3 -13 -20 -72 -36 -133 -17 -60 -37 -144 -46 -185 -9 -41 -18
-86 -21 -98 l-5 -24 -18 24 c-10 12 -21 31 -24 41 -15 41 63 311 95 328 11 6
24 24 30 40 12 34 33 40 25 7z m-782 -110 c52 -61 95 -120 95 -130 0 -17 -37
-94 -94 -196 -23 -42 -24 -45 -8 -72 14 -24 14 -32 4 -42 -10 -10 -17 -10 -32
-1 -20 13 -15 22 -175 -262 -38 -66 -73 -123 -79 -127 -15 -11 -43 26 -58 74
-13 46 -12 54 68 323 30 99 54 186 54 193 0 7 -9 26 -21 41 -27 36 -18 71 17
71 13 0 24 -5 24 -11 0 -5 4 -8 9 -5 5 3 18 43 30 88 28 107 50 168 62 168 4
0 51 -50 104 -112z m1761 -44 c33 -11 49 -13 57 -5 17 17 69 13 102 -9 17 -11
38 -17 51 -14 32 8 93 -24 117 -62 15 -22 30 -34 45 -34 60 0 102 -53 102
-126 0 -20 14 -56 35 -91 42 -70 48 -135 14 -153 -29 -16 -68 -4 -81 24 -9 21
-16 23 -43 19 -27 -4 -39 0 -58 20 -18 17 -29 21 -36 14 -6 -6 -26 -10 -45 -9
-19 1 -38 -3 -41 -8 -3 -6 -15 -10 -26 -10 -10 0 -35 -8 -54 -19 -28 -14 -44
-17 -72 -11 -23 6 -44 5 -56 -2 -23 -12 -151 -2 -181 14 -11 6 -40 12 -63 13
-27 1 -51 9 -66 22 -12 11 -35 25 -52 32 -46 19 -85 76 -85 125 1 73 17 118
54 152 20 18 36 37 36 43 0 5 15 12 33 16 17 4 45 19 60 33 24 23 38 27 104
29 42 2 79 5 81 8 8 8 18 6 68 -11z m-846 -323 c5 -11 10 -26 10 -33 0 -16
-187 -111 -201 -103 -13 9 -49 81 -49 99 0 10 14 17 38 22 20 3 62 12 92 19
79 18 98 18 110 -4z m450 -106 c13 -14 32 -25 42 -25 9 0 32 -9 50 -20 18 -11
47 -20 65 -20 39 0 65 -9 57 -21 -3 -5 -50 -9 -105 -9 l-99 0 0 -115 0 -115
53 -31 c50 -29 31 -31 -25 -2 l-28 14 0 -171 c0 -196 -12 -178 125 -182 78 -3
80 -4 80 -28 0 -25 -1 -25 -102 -28 l-103 -3 0 -40 c0 -38 -2 -40 -27 -37 -24
3 -28 8 -31 41 l-3 37 -80 0 -79 0 0 -119 0 -118 38 -6 c70 -11 172 -20 172
-14 0 2 -9 24 -20 48 -11 24 -20 54 -20 67 l0 22 616 0 c395 0 622 4 634 10
11 6 53 35 94 64 74 53 77 54 163 60 260 19 306 27 383 61 72 32 82 33 239 40
l164 7 -7 -28 c-4 -16 -22 -49 -40 -74 -18 -25 -64 -95 -102 -157 -38 -62 -92
-150 -121 -195 -28 -46 -70 -112 -92 -148 -65 -105 -77 -117 -98 -103 -85 59
-108 68 -173 68 -63 0 -69 -3 -182 -71 -77 -47 -131 -74 -161 -78 -54 -8 -128
7 -184 39 -49 27 -120 51 -179 60 -34 5 -66 -2 -162 -34 -66 -23 -136 -41
-156 -41 -20 0 -81 16 -137 35 -115 40 -179 44 -266 19 -30 -9 -57 -13 -61 -9
-6 6 -16 32 -83 213 -27 71 -34 82 -55 82 l-23 0 16 -42 c12 -30 19 -89 22
-193 l6 -150 27 -3 c18 -2 28 -11 32 -28 12 -44 2 -47 -133 -41 -170 8 -269
28 -440 86 -80 27 -150 47 -156 45 -6 -3 -17 -20 -24 -39 -7 -19 -24 -49 -38
-65 -24 -29 -27 -30 -114 -30 l-89 0 -20 33 c-11 17 -23 47 -26 65 l-6 32
-163 0 -162 0 -17 -43 c-30 -78 -44 -87 -145 -87 -101 0 -114 8 -135 82 -12
38 -17 44 -46 48 -33 5 -34 6 -47 80 -7 41 -10 91 -7 110 8 47 40 120 66 147
26 28 42 30 28 4 -5 -11 -7 -27 -4 -35 14 -36 22 -11 26 84 6 116 8 119 109
185 102 66 119 71 59 16 l-55 -51 112 0 113 0 -28 50 c-20 37 -33 50 -49 50
-20 0 -23 5 -23 43 0 25 -16 83 -39 144 -21 56 -47 142 -57 192 -16 78 -16 96
-5 127 9 24 11 57 6 98 -5 54 -3 65 15 89 l21 27 224 0 c191 0 224 -2 236 -16
9 -11 10 -20 2 -32 -9 -15 -38 -17 -234 -20 -123 -2 -226 -5 -228 -8 -11 -10
20 -223 45 -311 l27 -94 27 26 26 25 277 0 c178 0 277 4 277 10 0 6 -91 10
-253 10 -140 0 -257 3 -260 7 -4 3 1 12 11 19 13 10 74 13 255 14 204 0 237 2
237 15 0 13 -29 15 -202 15 -178 0 -200 2 -182 14 15 12 55 14 197 13 199 -2
184 -9 171 76 -6 36 -8 37 -49 37 -39 0 -47 -4 -75 -40 -35 -44 -58 -50 -84
-21 -16 17 -14 23 26 108 56 118 64 123 120 74 40 -36 42 -40 27 -57 -40 -47
-50 -46 267 -43 l299 2 83 -46 82 -46 0 100 c0 96 -1 99 -22 99 -13 1 -131 2
-262 3 -149 1 -241 6 -243 12 -1 6 15 20 37 33 37 21 49 22 264 22 l226 0 0
25 c0 14 6 25 13 25 8 0 24 -11 37 -25z m729 -55 c18 -15 21 -23 12 -33 -6 -8
-18 -67 -26 -133 -21 -158 -35 -247 -41 -253 -19 -19 -43 85 -33 149 4 25 10
86 14 137 l7 92 -48 3 c-50 3 -64 20 -22 26 12 2 31 10 42 18 28 20 67 17 95
-6z m349 -207 c2 -17 -3 -24 -21 -28 -34 -9 -74 -53 -90 -100 -10 -27 -21 -41
-35 -43 -17 -3 -23 4 -32 40 -6 24 -18 66 -26 95 -7 28 -14 54 -14 57 0 4 48
5 108 4 102 -3 107 -4 110 -25z m282 -70 c20 -18 33 -41 37 -65 l6 -38 -212 0
c-206 0 -211 0 -211 20 0 29 26 76 52 94 18 13 52 16 160 16 136 0 138 0 168
-27z m-773 -65 c6 -7 13 -26 17 -41 l7 -28 -113 3 c-110 3 -112 3 -118 28 -12
46 -5 50 100 50 66 0 101 -4 107 -12z m970 -79 c62 -30 85 -67 91 -149 3 -41
0 -70 -6 -74 -6 -3 -70 -11 -143 -17 l-132 -10 -56 -42 c-31 -23 -71 -52 -89
-64 l-33 -23 -464 0 -463 0 -7 30 c-17 76 26 161 88 178 18 5 205 7 417 5 385
-3 436 -1 425 18 -4 6 -91 8 -233 7 -207 -3 -227 -2 -230 14 -6 30 28 85 70
115 l41 28 281 5 c356 6 390 5 443 -21z m-951 -7 c17 -10 48 -106 42 -124 -5
-13 -23 -14 -110 -10 -56 2 -104 6 -106 7 -2 2 -10 29 -18 61 -13 47 -13 58
-2 65 16 11 179 11 194 1z m1131 -884 c32 -19 59 -42 61 -51 5 -24 -11 -21
-64 12 -93 59 -132 55 -279 -34 -59 -35 -123 -69 -142 -76 -61 -20 -139 -7
-242 40 -136 63 -194 66 -321 16 -124 -49 -182 -50 -294 -5 -104 42 -170 48
-264 22 -47 -13 -75 -16 -79 -9 -10 17 25 34 104 52 87 19 154 11 253 -30 110
-46 144 -44 313 20 104 39 178 30 307 -35 112 -56 224 -51 315 14 48 35 147
89 180 97 47 12 90 3 152 -33z m-12 -49 c53 -28 61 -37 48 -50 -7 -7 -20 -4
-44 10 -68 41 -169 35 -234 -13 -16 -13 -63 -42 -104 -66 -100 -58 -172 -65
-257 -25 -186 87 -231 92 -376 44 -142 -46 -173 -47 -306 -5 -126 40 -161 43
-247 21 -36 -10 -62 -12 -68 -6 -14 14 30 37 100 51 69 14 115 7 238 -37 96
-35 149 -32 277 11 150 51 193 48 338 -23 66 -32 84 -36 150 -36 72 0 78 2
157 50 146 88 162 95 228 95 42 0 72 -6 100 -21z"/>
<path d="M2682 8398 l3 -343 70 -3 c58 -3 295 24 397 44 l27 5 -28 57 c-100
210 -208 375 -365 559 -15 17 -30 23 -63 23 l-43 0 2 -342z"/>
<path d="M2817 8726 c4 -6 39 -49 78 -96 134 -160 217 -284 299 -447 20 -40
40 -73 44 -73 14 0 168 39 212 53 25 8 84 27 131 42 48 14 95 32 105 40 18 13
15 18 -46 80 -198 203 -425 323 -742 393 -57 13 -85 16 -81 8z"/>
<path d="M1983 7169 c4 -13 7 -38 7 -56 l0 -32 170 0 c93 0 174 -2 180 -6 5
-3 10 -18 10 -32 l0 -25 -109 7 c-104 7 -110 6 -166 -20 -56 -27 -57 -28 -52
-62 3 -18 13 -48 21 -65 9 -17 16 -45 16 -62 1 -17 7 -44 15 -61 13 -27 14
-20 12 85 -2 112 -3 115 -25 118 -19 3 -21 6 -11 18 7 9 31 14 65 14 l54 0 0
-150 c0 -93 4 -150 10 -150 6 0 10 58 10 155 0 115 3 157 13 160 6 3 46 2 87
-2 l75 -8 3 -142 c1 -79 7 -143 11 -143 40 0 41 4 41 230 l0 218 -57 6 c-32 3
-123 8 -203 11 -80 4 -154 9 -164 12 -16 4 -18 1 -13 -18z"/>
<path d="M2460 6940 l0 -221 78 3 77 3 3 185 2 185 -72 30 c-39 17 -75 32 -80
33 -4 2 -8 -96 -8 -218z"/>
<path d="M2245 6940 c-3 -5 -2 -61 1 -125 l7 -117 36 6 c20 3 42 6 49 6 17 0
17 206 0 216 -19 12 -88 22 -93 14z"/>
<path d="M1663 6920 c-177 -3 -296 -9 -302 -15 -6 -6 -8 -21 -4 -33 l6 -23 11
23 12 23 271 3 c244 2 271 1 277 -14 7 -19 -22 -183 -37 -201 -7 -9 -69 -13
-228 -15 l-218 -3 31 -48 c37 -57 23 -57 233 3 77 21 141 38 143 36 2 -2 -35
-25 -82 -51 -47 -26 -86 -48 -86 -51 0 -2 24 6 53 17 28 12 86 31 129 42 55
14 75 23 71 33 -7 18 16 183 29 207 10 19 2 79 -10 75 -4 -1 -138 -5 -299 -8z"/>
<path d="M2393 6652 c-21 -3 -23 -9 -25 -80 0 -42 -3 -61 -5 -42 -2 19 -6 54
-9 78 -6 45 -1 44 -76 27 l-28 -5 0 -133 c0 -90 4 -137 12 -145 14 -14 344
-17 352 -3 7 11 -53 21 -131 21 l-62 0 -3 143 c-3 141 -3 142 -25 139z"/>
<path d="M2010 6590 c-23 -7 -21 -8 12 -9 l37 -1 3 -72 3 -73 48 -3 c68 -4 58
-19 -20 -28 l-68 -8 75 -11 c58 -8 69 -12 50 -18 -14 -4 -38 -7 -54 -7 -43 0
-20 -18 29 -23 22 -2 0 -4 -48 -5 -124 -3 -103 -22 24 -22 l99 0 0 31 c0 17
-10 49 -22 70 -18 33 -27 39 -54 39 l-33 0 -3 73 c-3 69 -4 72 -28 74 -14 1
-36 -2 -50 -7z"/>
<path d="M1825 6540 c-65 -22 -216 -100 -195 -100 4 0 47 13 98 29 51 16 92
27 92 25 0 -2 -19 -13 -42 -25 -83 -42 -119 -71 -107 -85 8 -10 21 -8 62 12
29 13 61 24 72 23 13 0 6 -6 -20 -18 -22 -10 -47 -26 -55 -36 -14 -17 -13 -17
7 -7 32 18 38 15 18 -8 -18 -19 -17 -20 3 -20 15 0 20 -5 15 -15 -5 -15 22
-55 38 -55 5 0 15 15 23 34 8 19 26 42 41 52 33 22 67 8 95 -38 11 -18 20 -27
20 -20 0 23 -50 112 -70 124 -24 15 -26 28 -5 28 12 0 15 14 15 65 0 46 -4 65
-12 64 -7 -1 -49 -13 -93 -29z"/>
<path d="M2007 6190 c6 -57 23 -93 23 -49 l1 24 15 -27 c14 -26 19 -28 77 -28
44 0 58 -3 47 -10 -8 -5 -26 -10 -40 -10 -21 -1 -23 -2 -8 -11 12 -6 53 -6
128 3 106 12 110 13 110 36 0 13 -15 44 -32 69 l-33 45 -65 -5 c-36 -4 -99 -9
-142 -13 -69 -6 -76 -5 -81 12 -3 11 -3 -6 0 -36z"/>
<path d="M7540 9160 c-398 -39 -755 -212 -1036 -501 -231 -238 -368 -494 -446
-836 -22 -97 -22 -107 -25 -1051 l-4 -953 948 4 c942 3 949 3 1048 26 331 75
588 208 820 424 278 259 458 601 515 977 17 112 14 378 -5 499 -57 357 -218
674 -470 926 -239 240 -546 403 -875 464 -123 23 -349 33 -470 21z"/>
<path d="M2331 4399 c-451 -48 -905 -278 -1207 -615 -462 -513 -611 -1224
-393 -1878 203 -611 694 -1073 1314 -1236 144 -38 203 -48 360 -59 448 -34
926 110 1290 388 85 65 247 223 318 311 237 294 379 643 416 1024 7 69 11 471
11 1093 l0 983 -1012 -1 c-557 -1 -1051 -6 -1097 -10z"/>
</g>
</svg>
